<?xml version="1.0" standalone="no"?>
<!DOCTYPE svg PUBLIC "-//W3C//DTD SVG 20010904//EN"
 "http://www.w3.org/TR/2001/REC-SVG-20010904/DTD/svg10.dtd">
<svg version="1.0" xmlns="http://www.w3.org/2000/svg"
 width="426.000000pt" height="420.000000pt" viewBox="0 0 426.000000 420.000000"
 preserveAspectRatio="xMidYMid meet">

<g transform="translate(0.000000,420.000000) scale(0.100000,-0.100000)"
fill="#000000" stroke="none">
<path d="M1655 3584 c-55 -20 -130 -60 -195 -104 -44 -30 -68 -38 -120 -43
-150 -15 -304 -133 -379 -290 -22 -45 -44 -104 -50 -132 -5 -27 -27 -102 -47
-165 -34 -105 -38 -125 -38 -230 -1 -75 9 -186 28 -320 36 -262 32 -244 61
-278 22 -26 46 -112 31 -112 -3 0 -24 20 -47 45 -23 25 -45 45 -50 45 -11 0
-10 -76 1 -110 5 -17 8 -19 9 -7 1 9 8 17 16 17 16 0 55 -56 55 -78 0 -8 18
-59 40 -113 22 -55 40 -104 40 -109 0 -18 -21 -10 -51 19 -34 35 -37 31 -8
-16 13 -20 32 -36 48 -39 22 -5 30 -17 53 -77 70 -183 222 -339 436 -447 110
-55 200 -74 322 -66 214 13 346 77 533 256 l94 89 23 -31 c16 -22 19 -32 10
-38 -10 -6 178 -60 210 -60 6 0 10 10 8 22 -3 23 -13 29 -111 74 -80 36 -117
69 -117 104 0 29 33 70 55 70 15 0 74 129 111 242 27 84 30 88 57 88 29 0 87
47 87 69 0 6 -13 -3 -28 -20 -22 -25 -33 -30 -51 -24 -22 7 -23 10 -18 83 3
43 7 88 10 102 2 14 8 50 12 80 6 48 13 60 53 97 30 28 43 47 39 57 -16 41
-74 -3 -108 -81 -18 -42 -22 -46 -31 -30 -16 29 -15 136 1 147 18 11 10 125
-24 324 -40 240 -64 306 -169 459 -36 54 -66 106 -66 117 0 22 21 45 61 65 43
23 36 47 -27 103 -121 108 -235 148 -441 154 -88 2 -91 5 -73 54 18 46 1 54
-114 53 -62 0 -116 -6 -141 -15z m384 -695 c42 -23 80 -45 86 -50 14 -14 45
-11 51 5 3 8 6 28 8 45 3 42 11 47 43 26 44 -29 147 -116 157 -133 24 -42 105
-306 104 -339 -3 -72 13 -295 23 -321 19 -47 20 -221 4 -282 -44 -159 -85
-276 -131 -377 -8 -17 -14 -34 -14 -37 0 -19 -83 -132 -153 -208 -92 -101
-135 -129 -242 -159 -65 -17 -97 -20 -189 -16 -64 2 -133 11 -164 21 -47 15
-202 110 -227 139 -5 7 -34 32 -63 56 -90 74 -257 339 -275 436 -12 62 -29
219 -42 385 -13 170 -27 319 -30 330 -1 3 -5 29 -10 58 -4 28 -10 52 -14 52
-3 0 -6 30 -6 68 0 99 47 182 127 223 52 27 102 36 291 54 165 16 171 16 272
-5 58 -12 144 -37 192 -56 49 -19 93 -32 100 -30 12 5 14 20 14 109 0 26 3 47
6 47 3 0 40 -18 82 -41z"/>
<path d="M2030 2524 c-53 -11 -149 -46 -160 -59 -7 -8 -9 -22 -6 -31 7 -19 32
-16 121 16 52 19 73 21 155 16 52 -3 112 -8 133 -12 34 -6 39 -4 35 12 -6 36
-192 74 -278 58z"/>
<path d="M1207 2400 c-81 -21 -177 -86 -177 -121 0 -26 18 -24 69 11 67 45
141 64 227 57 58 -5 74 -4 85 9 10 12 9 18 -4 31 -19 19 -143 27 -200 13z"/>
<path d="M1967 2300 c-20 -15 -34 -30 -30 -34 3 -3 2 -6 -4 -6 -8 0 -30 -35
-38 -60 -1 -3 -4 -12 -8 -20 -12 -33 -17 -88 -9 -110 8 -21 10 -17 15 23 17
124 110 207 232 207 88 0 166 -46 205 -119 18 -34 19 -35 20 -10 0 34 -36 87
-79 116 -48 33 -101 44 -190 42 -67 -1 -83 -5 -114 -29z"/>
<path d="M1338 2278 c-16 -5 -28 -13 -28 -16 0 -4 -23 -20 -51 -37 -120 -71
-144 -90 -166 -135 -24 -46 -30 -104 -13 -115 6 -3 10 0 10 7 0 35 24 92 53
125 61 70 168 93 252 54 48 -22 106 -83 131 -139 21 -49 30 -52 46 -17 9 21 8
40 -5 95 -21 89 -57 143 -111 170 -46 22 -76 24 -118 8z"/>
<path d="M2043 2259 c-52 -25 -89 -91 -79 -142 10 -51 44 -100 64 -92 19 8
190 66 210 71 18 5 14 53 -8 102 -15 33 -29 47 -62 62 -55 25 -73 25 -125 -1z
m22 -79 c0 -18 -6 -26 -23 -28 -13 -2 -25 3 -28 12 -10 26 4 48 28 44 17 -2
23 -10 23 -28z"/>
<path d="M1243 2140 c-40 -24 -63 -67 -63 -119 0 -70 1 -71 110 -71 55 0 102
4 105 10 10 16 25 12 25 -7 1 -16 2 -16 15 1 21 28 19 105 -5 143 -37 62 -124
82 -187 43z m36 -54 c15 -18 4 -46 -19 -46 -28 0 -45 27 -30 45 16 19 34 19
49 1z"/>
<path d="M1591 1747 c-16 -42 -14 -63 12 -93 44 -51 181 -42 239 16 45 45 31
84 -15 43 -14 -13 -41 -19 -101 -21 -89 -4 -95 -1 -113 53 l-11 30 -11 -28z"/>
<path d="M2125 1689 c-4 -6 1 -17 11 -24 11 -8 16 -15 13 -15 -30 -1 -317 -84
-349 -100 -35 -18 -52 -20 -132 -15 -51 4 -124 2 -163 -3 -45 -6 -72 -6 -76 1
-4 5 -12 8 -19 5 -17 -5 54 -74 101 -99 20 -10 70 -27 111 -38 111 -29 203
-16 323 43 95 47 183 122 205 175 6 16 21 32 33 35 20 5 20 6 2 26 -20 22 -50
26 -60 9z m-127 -158 c34 -21 -136 -62 -283 -67 -147 -6 -138 7 27 37 62 12
131 24 153 29 56 11 88 11 103 1z"/>
<path d="M1510 1393 c0 -5 25 -24 56 -43 46 -27 70 -35 122 -38 73 -5 80 11
10 22 -36 6 -87 24 -175 63 -7 3 -13 1 -13 -4z"/>
<path d="M1910 1359 c0 -5 5 -7 10 -4 6 3 10 8 10 11 0 2 -4 4 -10 4 -5 0 -10
-5 -10 -11z"/>
<path d="M140 2855 c-45 -116 -89 -277 -117 -425 -25 -136 -25 -525 0 -660 45
-238 100 -406 197 -600 53 -105 173 -300 185 -300 2 0 -23 42 -56 93 -240 364
-364 850 -330 1291 17 221 76 477 152 654 11 25 18 47 15 49 -2 2 -23 -44 -46
-102z"/>
<path d="M4075 2943 c159 -392 207 -765 149 -1150 -42 -282 -162 -602 -309
-827 -10 -14 -15 -26 -12 -26 10 0 85 127 140 236 94 188 150 359 194 594 13
74 17 148 17 330 0 254 -8 319 -64 537 -28 107 -106 323 -117 323 -3 0 -2 -8
2 -17z"/>
<path d="M3225 1766 c-43 -77 -61 -155 -50 -211 l8 -40 8 61 c4 34 21 93 37
130 30 71 46 124 38 124 -3 0 -21 -29 -41 -64z"/>
<path d="M2972 1788 c-33 -54 -45 -116 -38 -198 5 -64 3 -82 -14 -115 l-20
-40 35 37 35 38 -1 113 c-1 83 3 122 15 151 21 50 14 57 -12 14z"/>
<path d="M2407 1193 c-4 -3 -7 -24 -7 -47 0 -30 7 -47 27 -68 26 -27 26 -28 7
-50 -12 -14 -13 -18 -3 -10 13 10 34 6 117 -23 99 -34 175 -45 187 -25 3 5
-14 23 -37 41 -48 35 -49 35 -170 79 -94 35 -124 58 -115 90 5 21 4 24 -6 13z"/>
<path d="M3396 1044 c-3 -9 -6 -25 -6 -36 0 -26 -58 -148 -71 -148 -5 0 -9 -5
-9 -12 0 -55 -243 -163 -455 -203 -93 -17 -112 -16 -215 17 -127 40 -190 90
-175 139 8 25 9 24 112 -12 98 -35 151 -44 189 -35 20 5 23 10 14 20 -6 8 -22
17 -37 21 -14 3 -42 17 -62 31 -19 13 -42 24 -51 24 -26 0 -171 58 -191 76
-10 9 -19 31 -20 48 0 30 0 30 -10 7 -15 -38 -1 -78 37 -109 30 -25 33 -31 20
-41 -24 -20 -29 -67 -11 -106 13 -27 32 -42 80 -65 97 -46 224 -73 309 -65
101 9 247 40 292 61 61 28 146 90 177 129 43 54 85 153 92 218 7 56 3 73 -9
41z"/>
<path d="M3859 883 c-13 -16 -12 -17 4 -4 9 7 17 15 17 17 0 8 -8 3 -21 -13z"/>
<path d="M410 856 c0 -2 8 -10 18 -17 15 -13 16 -12 3 4 -13 16 -21 21 -21 13z"/>
<path d="M440 816 c0 -2 8 -10 18 -17 15 -13 16 -12 3 4 -13 16 -21 21 -21 13z"/>
<path d="M3799 803 c-13 -16 -12 -17 4 -4 9 7 17 15 17 17 0 8 -8 3 -21 -13z"/>
<path d="M480 766 c0 -2 8 -10 18 -17 15 -13 16 -12 3 4 -13 16 -21 21 -21 13z"/>
<path d="M3759 753 c-13 -16 -12 -17 4 -4 16 13 21 21 13 21 -2 0 -10 -8 -17
-17z"/>
</g>
</svg>
